<svg height="464pt" viewBox="0 -72 464 464" width="464pt" xmlns="http://www.w3.org/2000/svg"><path d="m24 48h80v176h-80zm0 0" fill="#ffde55"/><path d="m24 256h80v32h-80zm0 0" fill="#ffde55"/><path d="m104 16v272h80v-272zm0 0" fill="#ffc477"/><path d="m184 248h80v40h-80zm0 0" fill="#0b7"/><path d="m184 64h80v160h-80zm0 0" fill="#0b7"/><path d="m264 0h96v32h-96zm0 0" fill="#c49a6c"/><path d="m264 248v40h96v-232h-96zm0 0" fill="#c49a6c"/><path d="m360 80h80v144h-80zm0 0" fill="#3d9ae2"/><path d="m360 248h80v40h-80zm0 0" fill="#3d9ae2"/><path d="m80 96c0 8.835938-7.164062 16-16 16s-16-7.164062-16-16 7.164062-16 16-16 16 7.164062 16 16zm0 0" fill="#ff7956"/><g fill="#bcbec0"><path d="m24 224h80v32h-80zm0 0"/><path d="m184 224h80v24h-80zm0 0"/><path d="m264 32h96v24h-96zm0 0"/><path d="m360 224h80v24h-80zm0 0"/></g><path d="m416 128c0 8.835938-7.164062 16-16 16s-16-7.164062-16-16 7.164062-16 16-16 16 7.164062 16 16zm0 0" fill="#ff6243"/><path d="m360 288h-360v32h464v-32zm0 0" fill="#57565c"/><path d="m24 272h80v16h-80zm0 0" fill="#ffd422"/><path d="m104 272h80v16h-80zm0 0" fill="#ffb655"/><path d="m184 272h80v16h-80zm0 0" fill="#00a166"/><path d="m264 272h96v16h-96zm0 0" fill="#a8845d"/><path d="m360 272h80v16h-80zm0 0" fill="#1e81ce"/><path d="m64 120c-13.253906 0-24-10.746094-24-24s10.746094-24 24-24 24 10.746094 24 24-10.746094 24-24 24zm0-32c-4.417969 0-8 3.582031-8 8s3.582031 8 8 8 8-3.582031 8-8-3.582031-8-8-8zm0 0" fill="#ffa733"/><path d="m128 56h32v16h-32zm0 0" fill="#754c29"/><path d="m128 88h32v16h-32zm0 0" fill="#754c29"/><path d="m400 152c-13.253906 0-24-10.746094-24-24s10.746094-24 24-24 24 10.746094 24 24-10.746094 24-24 24zm0-32c-4.417969 0-8 3.582031-8 8s3.582031 8 8 8 8-3.582031 8-8-3.582031-8-8-8zm0 0" fill="#ffd422"/></svg>