<svg height="464pt" viewBox="-15 0 463 464" width="464pt" xmlns="http://www.w3.org/2000/svg"><path d="m64.5 0h288v368h-288zm0 0" fill="#c49a6c"/><path d="m48.5 368h16v-368h-16c-26.507812 0-48 21.492188-48 48v368c0-26.507812 21.492188-48 48-48zm0 0" fill="#8b5e3c"/><path d="m64.5 368h-16c-26.507812 0-48 21.492188-48 48 .039062 26.492188 21.507812 47.960938 48 48h304v-96zm0 0" fill="#787680"/><path d="m352.5 368v16h-304c-23.417969-.007812-43.410156 16.90625-47.28125 40-.484375-2.640625-.722656-5.316406-.71875-8 0-26.507812 21.492188-48 48-48zm0 0" fill="#57565c"/><path d="m352.5 0v368h-278.640625c104.960937-62.320312 215.199219-172.878906 260-368zm0 0" fill="#a97c50"/><path d="m112.5 80h192v80h-192zm0 0" fill="#d1d3d4"/><path d="m352.5 48v64h80l-16-32 16-32zm0 0" fill="#ff5023"/><path d="m432.5 208-16-32 16-32h-80v64zm0 0" fill="#ffd422"/><path d="m432.5 304-16-32 16-32h-80v64zm0 0" fill="#0b7"/><path d="m352.5 48h16v64h-16zm0 0" fill="#e6481f"/><path d="m352.5 144h16v64h-16zm0 0" fill="#e6bf1f"/><path d="m352.5 240h16v64h-16zm0 0" fill="#00a166"/><path d="m48.5 408h304v16h-304zm0 0" fill="#3e3d42"/><g fill="#754c29"><path d="m56.5 0h16v368h-16zm0 0"/><path d="m144.5 200h128v16h-128zm0 0"/><path d="m112.5 248h192v16h-192zm0 0"/></g></svg>