<?xml version="1.0" encoding="utf-8"?>
<!-- Generator: Adobe Illustrator 16.0.4, SVG Export Plug-In . SVG Version: 6.00 Build 0)  -->
<!DOCTYPE svg PUBLIC "-//W3C//DTD SVG 1.1//EN" "http://www.w3.org/Graphics/SVG/1.1/DTD/svg11.dtd">
<svg version="1.1" id="Layer_1" xmlns="http://www.w3.org/2000/svg" xmlns:xlink="http://www.w3.org/1999/xlink" x="0px" y="0px"
	 width="50px" height="50px" viewBox="0 0 50 50" enable-background="new 0 0 50 50" xml:space="preserve">
<path d="M36.839,16.443c-0.188-1.738-1.646-3.101-3.43-3.101H24.47l-6.891-2.776c-0.337-0.135-0.67-0.205-0.989-0.205
	c-1.2,0-2.007,0.938-2.007,2.338v1.297c-0.784,0.561-1.314,1.439-1.422,2.447c-0.416,0.631-0.661,1.383-0.661,2.195v17
	c0,2.209,1.791,4,4,4h17c2.209,0,4-1.791,4-4v-17C37.5,17.826,37.255,17.074,36.839,16.443z M15.083,13.703v-1.004
	c0-1.117,0.591-1.838,1.507-1.838c0.255,0,0.525,0.057,0.802,0.168l5.74,2.313l1.24,0.5l0.378,0.152v0.348v0.296v21.459h-0.281
	l-6.89-2.777c-1.376-0.555-2.496-2.262-2.496-3.805V14.908v-0.035V14.27V13.703z M27.074,14.639v2.332l0.973-0.818l0.973,0.818
	v-2.332v-0.295h4.39c0.603,0,1.147,0.227,1.577,0.586c0.541,0.455,0.891,1.125,0.891,1.883v16.816c0,1.361-1.107,2.469-2.468,2.469
	H25.25V14.639v-0.295h1.824V14.639z M23.28,20.949l-3.095-1.248v-0.508l3.095,1.248V20.949z M23.28,22.887l-3.095-1.248v-0.508
	l3.095,1.246V22.887z M23.28,24.842l-6.189-2.494V21.84l6.189,2.494V24.842z M23.28,26.779l-6.189-2.494v-0.51l6.189,2.494V26.779z
	 M23.28,28.734l-6.189-2.494v-0.508l6.189,2.494V28.734z M17.621,20.754l0.161-0.494l0.932,0.375l0.167,0.627l0.271,0.109
	l0.272,0.109l-0.869-3.099l-0.297-0.12l-0.297-0.119l-0.869,2.397l0.266,0.104L17.621,20.754z M18.25,18.873v-0.002h0.001
	L18.25,18.873l0.326,1.234l-0.651-0.265L18.25,18.873z M33.672,28.643h-6.386v-0.43h6.386V28.643z M33.627,21.973l-0.656-0.613
	l-1.445,1.552l0.658,0.612L33.627,21.973z M28.609,26.578l-0.27-0.25l3.034-3.256l0.271,0.25L28.609,26.578z M31.764,23.434
	l0.269,0.252l-3.035,3.256l-0.269-0.25L31.764,23.434z M28.189,26.488l0.658,0.613l-0.471,0.506l-0.809,0.207l0.15-0.82
	L28.189,26.488z"/>
</svg>
